<?xml version="1.0" encoding="utf-8"?>
<!-- Svg Vector Icons : http://www.onlinewebfonts.com/icon -->
<!DOCTYPE svg PUBLIC "-//W3C//DTD SVG 1.1//EN" "http://www.w3.org/Graphics/SVG/1.1/DTD/svg11.dtd">
<svg version="1.1" xmlns="http://www.w3.org/2000/svg" xmlns:xlink="http://www.w3.org/1999/xlink" x="0px" y="0px"
    viewBox="0 0 1000 1000" enable-background="new 0 0 1000 1000" xml:space="preserve">
    <metadata> Svg Vector Icons : http://www.onlinewebfonts.com/icon </metadata>
    <g>
        <g transform="translate(0.000000,511.000000) scale(0.100000,-0.100000)">
            <path
                d="M3276.7,3592.2c-402.8-73.9-789.9-264.6-1075.9-533.1c-134.3-124.5-303.5-338.5-381.3-476.7c-38.9-70-58.4-83.7-179-122.6c-315.2-99.2-612.9-286-875.5-546.7C-23.1,1121.2-122.3-96.7,529.5-960.6C943.9-1509.3,1549-1830.3,2249.4-1875l200.4-13.6l136.2-128.4c575.9-542.8,1447.5-706.3,2177.2-408.6c75.9,31.1,136.2,52.5,138.1,50.6c0-2,50.6-70.1,110.9-151.8c422.2-560.4,1074-873.6,1817.2-873.6c733.5,0,1414.5,336.6,1848.3,912.5c299.6,398.8,430,772.4,449.5,1276.3l11.7,291.8l136.2,87.5c256.8,167.3,463.1,435.8,572,749.1c50.6,145.9,54.5,175.1,52.5,457.2c0,278.2-3.9,313.2-52.5,447.5c-177.1,488.4-581.8,852.2-1062.3,955.3l-91.4,19.5l-23.4,151.8c-122.6,778.3-768.5,1437.8-1556.5,1589.6c-204.3,38.9-577.9,35-791.9-9.7c-338.5-70-644-223.8-920.3-465l-142-124.5l-110.9,105.1c-309.4,293.8-675.1,476.7-1099.3,552.6C3852.6,3629.1,3473.2,3629.1,3276.7,3592.2z M4051.1,3214.7c383.3-91.5,727.7-324.9,978.7-661.5c179-243.2,282.1-239.3,480.6,19.5c212.1,276.3,517.6,480.6,830.8,556.5c321,77.8,776.3,21.4,1101.2-136.2c505.9-247.1,789.9-675.1,832.7-1254.9c15.6-208.2,21.4-223.8,73.9-278.2c50.6-50.6,75.9-58.4,235.4-73.9c216-23.4,367.7-73.9,507.8-169.3c173.1-120.6,324.9-356,381.3-593.4c33.1-140.1,37-414.4,7.8-538.9c-60.3-266.6-256.8-498.1-533.1-626.5c-254.9-120.6-249-107-233.5-465c15.6-352.2-13.6-570.1-107-813.3c-223.8-581.7-749.1-998.1-1439.8-1144c-239.3-48.6-601.2-46.7-823,7.8c-441.7,109-805.5,371.6-1064.3,772.4c-157.6,243.2-214,301.6-293.8,301.6c-38.9,0-149.8-42.8-278.2-107c-282.1-140.1-463.1-186.8-741.3-186.8c-467,0-828.8,167.3-1175.2,540.9l-159.5,171.2l-344.4,11.7c-268.5,9.7-375.5,23.3-490.3,56.4c-589.5,171.2-1035.1,622.6-1218,1235.5C506.1,90,490.6,522,550.9,767.1c159.5,673.2,642.1,1155.7,1328.9,1330.8c163.4,42.8,184.8,58.4,252.9,192.6C2512.1,3035.7,3268.9,3401.5,4051.1,3214.7z" />
            <path
                d="M2957.6,1570.7c-437.8-110.9-803.6-492.2-896.9-935.8c-54.5-256.8-21.4-480.6,109-747.1C2317.5-410,2623-662.9,2938.2-744.6c144-37,375.5-37,523.4,0c278.2,70,597.3,289.9,624.5,426.1c7.8,42.8,0,85.6-19.5,126.5c-77.8,147.9-225.7,157.6-373.6,21.4c-48.6-44.7-138.1-105.1-198.4-132.3c-97.3-44.8-136.2-52.5-295.7-50.6c-223.7,0-358,46.7-494.2,165.4C2535.4-38.4,2457.6,148.4,2457.6,413c0,463.1,291.8,762.7,741.3,764.6c200.4,0,291.8-33.1,465-163.4c99.2-73.9,142-95.3,198.5-95.3c149.8,0,251,159.5,184.8,289.9c-56.4,105.1-284.1,254.9-517.5,336.6C3385.7,1596,3107.4,1607.6,2957.6,1570.7z" />
            <path
                d="M5144.5,1568.7c-204.3-52.5-350.2-140.1-517.5-307.4c-476.7-476.7-498.1-1146-52.5-1663.5c110.9-128.4,346.3-284.1,503.9-332.7c159.5-48.6,422.2-52.5,574-7.8c505.8,147.9,885.2,694.6,846.3,1223.8c-11.7,180.9-44.7,291.8-132.3,472.8c-87.5,180.9-348.3,441.7-521.4,525.3C5599.8,1597.9,5366.3,1627.1,5144.5,1568.7z M5504.5,1169.9c313.3-58.4,519.5-284.1,574-628.4c56.4-359.9-97.3-690.7-385.2-832.7c-118.7-58.4-144-64.2-315.2-64.2s-196.5,5.8-315.2,64.2c-287.9,140.1-435.8,463.1-383.3,830.8c46.7,330.8,245.1,558.4,542.8,624.5C5360.5,1195.2,5370.2,1195.2,5504.5,1169.9z" />
            <path
                d="M7047.3,189.3c-182.9-68.1-363.8-245.2-377.4-375.5c-11.7-95.3,25.3-161.5,114.8-204.3c103.1-52.5,153.7-31.1,297.7,116.7c109,112.8,128.4,126.5,177.1,114.8c73.9-17.5,161.5-114.8,147.9-165.4c-9.7-37-245.1-276.3-622.6-634.3c-153.7-144-184.8-216-142-321c46.7-112.9,68.1-116.7,593.4-116.7h480.6l56.4,56.4c79.8,79.8,79.8,190.7,0,278.2c-56.4,62.2-62.2,64.2-235.4,72l-179,5.8l153.7,149.8c206.2,198.5,266.5,321,266.5,537c0,99.2-11.7,180.9-31.1,225.7c-50.6,114.8-163.4,225.7-262.7,258.8C7374.2,224.3,7146.6,226.2,7047.3,189.3z" />
        </g>
    </g>
</svg>