<?xml version="1.0" encoding="utf-8"?>
<!-- Generator: Adobe Illustrator 27.1.1, SVG Export Plug-In . SVG Version: 6.00 Build 0)  -->
<svg version="1.1" id="Calque_1" xmlns="http://www.w3.org/2000/svg" xmlns:xlink="http://www.w3.org/1999/xlink" x="0px" y="0px"
	 viewBox="0 0 512 512" style="enable-background:new 0 0 512 512;" xml:space="preserve">
<path class="st0" d="M148.09,369.01c-7.65,2.82-14,7.92-20.62,12.4c-18.25,12.34-35.43,26.04-50.39,42.36
	c-18.08,19.72-31.32,42.04-36.6,68.61c-0.69,3.49-1.76,6.96-1.93,10.47c-0.24,4.93-3.39,7.1-7.13,9.01c-1.66,0-3.33,0-4.99,0
	c-6.87-4.38-6.37-10.49-5.15-17.6c1.88-10.89,4.23-21.57,8.05-31.95c7.48-20.36,18.65-38.33,33.21-54.44
	c20.9-23.12,46.52-39.87,72.77-55.9c1.08-0.41,2.21-0.71,3.22-1.25c16.94-9.12,33.85-18.31,50.8-27.41
	c21.32-11.45,42.68-22.78,62.8-36.34c14.43-9.73,28.4-20.03,42.09-30.77c14.49-11.37,27.67-24.21,41.32-36.52
	c1.96-1.77,2.72-3.78,1.82-6.23c-0.66-1.79-0.49-3.6-0.65-5.41c-1.02-11.03-2-22.07-3.19-33.08c-1.15-10.69-2.9-21.32-2.78-32.11
	c0.06-5.41,2.76-8.59,7.32-8.83c5.59-0.29,10.1,3.01,10.6,8.08c1.74,17.6,3.37,35.22,5.05,52.82c0.09,0.94-0.3,2.2,0.93,2.56
	c1.11,0.33,1.8-0.68,2.38-1.44c3.61-4.76,7.89-8.97,11.55-13.64c18.46-23.53,35.11-48.3,48.31-75.21
	c9.87-20.13,18.61-40.81,24.15-62.59c2.96-11.65,6.64-23.28,6.44-35.55c0,0-0.03,0.05-0.03,0.05c0.92-0.43,1.01-1.24,0.97-2.11
	c0.57-3.58,3.6-4.98,6.07-6.88c1.66,0,3.33,0,4.99,0c4.19,2.45,7.91,5.2,7.04,10.92c-2.09,17.32-6.25,34.2-11.5,50.78
	c-8.76,27.65-21.05,53.74-35.66,78.77c-17.05,29.2-37.17,56.1-60.44,80.56c-10.18,10.7-20.54,21.26-31.67,31.05
	c-11.07,9.74-22.38,19.15-33.99,28.24c-6.28,4.91-13.33,8.86-19.53,15.01c12.1,2.28,23.41,4.41,34.73,6.54
	c8.92,1.68,17.87,3.22,26.74,5.09c5.06,1.07,8.14,5.66,7.48,10.3c-0.6,4.22-4.87,7.73-9.71,7.53c-3.28-0.14-6.56-0.73-9.8-1.34
	c-23.34-4.43-46.68-8.9-70-13.4c-2.01-0.39-3.56,0.41-5.13,1.38c-27.55,16.97-56.5,31.48-84.43,47.77
	C158.3,362.36,152.47,364.54,148.09,369.01z"/>
<path class="<%= svgClassTag %>" d="M447.43,9.05c0.21,12.27-3.47,23.9-6.44,35.55c-5.54,21.79-14.27,42.46-24.15,62.59
	c-13.2,26.91-29.85,51.67-48.31,75.21c-3.66,4.67-7.94,8.88-11.55,13.64c-0.58,0.77-1.27,1.77-2.38,1.44
	c-1.23-0.36-0.84-1.62-0.93-2.56c-1.68-17.61-3.31-35.22-5.05-52.82c-0.5-5.07-5-8.37-10.6-8.08c-4.56,0.24-7.27,3.42-7.32,8.83
	c-0.11,10.79,1.64,21.42,2.78,32.11c1.18,11.01,2.17,22.05,3.19,33.08c0.17,1.81,0,3.62,0.65,5.41c0.9,2.44,0.14,4.46-1.82,6.23
	c-13.65,12.31-26.83,25.15-41.32,36.52c-13.69,10.74-27.66,21.04-42.09,30.77c-20.12,13.56-41.48,24.9-62.8,36.34
	c-16.95,9.1-33.86,18.29-50.8,27.41c-1.01,0.54-2.14,0.84-3.22,1.25c-10.29-15.8-16.81-33.13-20.99-51.45
	c-3.22-14.11-3.91-28.53-2.84-42.73c2.43-32.08,13.79-61.11,33.92-86.29c17.07-21.36,38.73-36.64,64.26-46.52
	c17.05-6.6,34.74-9.74,52.79-12.17c26.83-3.62,53.11-9.91,78.32-20.29c21.68-8.93,41.93-20.11,60.52-34.52
	c17.61-13.65,32.84-29.35,44.99-48.05C446.53,9.58,447.04,9.35,447.43,9.05z"/>
<path class="<%= svgClassTag %>" d="M148.09,369.01c4.38-4.46,10.22-6.65,15.46-9.71c27.94-16.29,56.88-30.8,84.43-47.77
	c1.57-0.97,3.12-1.77,5.13-1.38c23.33,4.5,46.66,8.98,70,13.4c3.24,0.61,6.52,1.2,9.8,1.34c4.84,0.2,9.11-3.31,9.71-7.53
	c0.66-4.65-2.42-9.23-7.48-10.3c-8.88-1.88-17.83-3.42-26.74-5.09c-11.31-2.13-22.63-4.26-34.73-6.54
	c6.2-6.14,13.25-10.1,19.53-15.01c11.61-9.08,22.92-18.49,33.99-28.24c11.13-9.79,21.49-20.35,31.67-31.05
	c23.28-24.46,43.4-51.36,60.44-80.56c14.61-25.03,26.9-51.12,35.66-78.77c5.25-16.58,9.41-33.46,11.5-50.78
	c4.62,13.34,7.89,27.06,10.91,40.83c3.81,17.36,6.91,34.83,9.16,52.5c2.46,19.34,3.75,38.66,3.99,58.14
	c0.12,9.36,0.05,18.75-0.36,28.04c-0.46,10.42-1.97,20.85-3.46,31.25c-2.67,18.63-7.22,36.67-13.31,54.39
	c-9.98,29.05-24.79,55.23-44.98,78.52c-19.1,22.03-41.96,38.75-68.02,51.28c-15.15,7.28-31.14,12.29-47.55,15.83
	c-17.55,3.78-35.47,4.18-53.18,2.86c-23.06-1.73-45.29-7.89-65.76-18.91C176.46,396.37,160.37,385,148.09,369.01z"/>
</svg>
