<?xml version="1.0" encoding="utf-8"?>
<!-- Svg Vector Icons : http://www.onlinewebfonts.com/icon -->
<!DOCTYPE svg PUBLIC "-//W3C//DTD SVG 1.1//EN" "http://www.w3.org/Graphics/SVG/1.1/DTD/svg11.dtd">
<svg version="1.1" xmlns="http://www.w3.org/2000/svg" xmlns:xlink="http://www.w3.org/1999/xlink" x="0px" y="0px" viewBox="0 0 1000 1000" enable-background="new 0 0 1000 1000" xml:space="preserve">
<metadata> Svg Vector Icons : http://www.onlinewebfonts.com/icon </metadata>
<g><path d="M211,736.5c-54.2,0-108.5-20.6-149.8-61.9c-2.9-2.9-2.9-7.7,0-10.6c2.9-2.9,7.7-2.9,10.6,0c76.8,76.7,201.6,76.7,278.4,0c2.9-2.9,7.7-2.9,10.6,0c2.9,2.9,2.9,7.7,0,10.6C319.5,715.8,265.3,736.5,211,736.5z"/><path d="M500,736.6c-56.5,0-109.7-22.1-149.8-62.1c-2.9-2.9-2.9-7.7,0-10.6c2.9-2.9,7.7-2.9,10.6,0c37.2,37.2,86.6,57.7,139.2,57.7c52.6,0,102-20.5,139.2-57.7c2.9-2.9,7.7-2.9,10.6,0c2.9,2.9,2.9,7.7,0,10.6C609.7,714.6,556.6,736.6,500,736.6z"/><path d="M789,736.5c-54.2,0-108.5-20.6-149.8-61.9c-2.9-2.9-2.9-7.7,0-10.6c2.9-2.9,7.7-2.9,10.6,0c76.7,76.7,201.6,76.7,278.4,0c2.9-2.9,7.7-2.9,10.6,0c2.9,2.9,2.9,7.7,0,10.6C897.4,715.8,843.2,736.5,789,736.5z"/><path d="M500,990C229.8,990,10,770.2,10,500C10,229.8,229.8,10,500,10s490,219.8,490,490C990,770.2,770.2,990,500,990z M500,39.9C246.3,39.9,39.9,246.3,39.9,500c0,253.7,206.4,460.1,460.1,460.1c253.7,0,460.1-206.4,460.1-460.1C960.1,246.3,753.7,39.9,500,39.9z"/><path d="M467.5,217.9c0.5,1.8,1,3.7,1.6,5.5c3.8,14.7,10.5,52.7-11.5,111.5c-9.7,25.8-31.4,59.1-52.5,90c0,0,0.1,0,0.1,0c-13.4,19.8-20.3,44-17.7,69.5c5.9,58.9,59.5,102.1,119.9,96.3c60.3-5.8,109.8-57.7,105.6-132.7C604.4,304.1,467.5,217.9,467.5,217.9"/></g>
</svg>